<?xml version="1.0" ?><svg enable-background="new 0 0 200 200" version="1.1" viewBox="0 0 200 200" xml:space="preserve" xmlns="http://www.w3.org/2000/svg" xmlns:xlink="http://www.w3.org/1999/xlink"><g id="Layer_4"><path d="M150.65,186.98c0,0-35.51-0.33-68.81-0.15c-5.74,0.03-11.42,0.08-16.84,0.14   c-36.84,0.44-33.29-17.55-33.29-17.55l10.96-81.76l26.55-20.19c0,0,14.04,0,28.86,0h32.7c9.22,0,27.24,23.44,27.24,23.44   s9.31,49.11,11.17,71.23C171.05,184.26,150.65,186.98,150.65,186.98z" fill="#FF0000"/><polygon fill="#FF0000" points="59.111,21.862 70.029,51.72 128.618,50.054 141.048,21.862 120.506,18.232 120.879,12.651    79.576,12.651 79.576,17.116  "/><rect fill="#FFED00" height="12.378" stroke="#1D1D1B" stroke-miterlimit="10" width="65.167" x="66.488" y="55.087"/></g><g id="Layer_2"><circle cx="113.009" cy="101.509" fill="#FFED00" r="5.846" stroke="#1D1D1B" stroke-miterlimit="10"/><circle cx="89.005" cy="101.509" fill="#FFED00" r="5.846" stroke="#1D1D1B" stroke-miterlimit="10"/><path d="M60.91,168.3l20.93,18.53c-5.74,0.03-11.42,0.08-16.84,0.14c-36.84,0.44-33.29-17.55-33.29-17.55   l10.96-81.76l26.55-20.19c0,0,14.04,0,28.86,0l-29.74,34.04L60.91,168.3z" opacity="0.2"/><polygon opacity="0.2" points="100,12.651 100,51.72 70.029,51.72 59.111,21.862 79.555,19.093 79.576,12.651  "/></g><g id="Layer_3"/><g id="Layer_1"><path d="M35.211,56.56c1.933,0,3.5-1.567,3.5-3.5v-4.289c0-1.933-1.567-3.5-3.5-3.5s-3.5,1.567-3.5,3.5v4.289   C31.711,54.992,33.278,56.56,35.211,56.56z" fill="#280101"/><path d="M35.211,63.339c-1.933,0-3.5,1.567-3.5,3.5v4.289c0,1.933,1.567,3.5,3.5,3.5s3.5-1.567,3.5-3.5v-4.289   C38.711,64.906,37.145,63.339,35.211,63.339z" fill="#280101"/><path d="M42.101,63.449h4.289c1.933,0,3.5-1.567,3.5-3.5s-1.567-3.5-3.5-3.5h-4.289c-1.933,0-3.5,1.567-3.5,3.5   S40.168,63.449,42.101,63.449z" fill="#280101"/><path d="M31.822,59.949c0-1.933-1.567-3.5-3.5-3.5h-4.289c-1.933,0-3.5,1.567-3.5,3.5s1.567,3.5,3.5,3.5h4.289   C30.255,63.449,31.822,61.882,31.822,59.949z" fill="#280101"/><path d="M172.779,163.146l-9.28-66.967c-0.874-6.306-4.096-11.964-9.074-15.932l-13.281-10.586   c-1.653-1.317-3.466-2.408-5.384-3.257c1.307-1.88,2.018-4.112,2.018-6.462c0-3.596-1.686-6.875-4.4-8.967l11.64-27.505   c0.421-0.994,0.359-2.128-0.167-3.07s-1.458-1.59-2.526-1.754L124.6,15.928l0.757-2.746c0.291-1.053,0.072-2.182-0.59-3.051   s-1.692-1.379-2.784-1.379H78.017c-1.092,0-2.122,0.51-2.784,1.379s-0.88,1.998-0.59,3.051L75.4,15.93l-17.727,2.716   c-1.068,0.164-2,0.812-2.526,1.755c-0.526,0.942-0.588,2.076-0.167,3.07l11.656,27.516c-0.384,0.296-0.753,0.611-1.096,0.954   c-2.142,2.142-3.321,4.983-3.321,8.002c0,2.399,0.753,4.623,2.029,6.458c-1.921,0.85-3.738,1.941-5.393,3.261L45.575,80.247   c-4.978,3.968-8.201,9.626-9.075,15.932l-9.28,66.967c-0.981,7.08,1.149,14.231,5.843,19.622c4.694,5.39,11.486,8.48,18.633,8.48   h96.605c7.147,0,13.939-3.091,18.633-8.48C171.63,177.377,173.76,170.226,172.779,163.146z M122.728,22.723l14.092,2.161   l-10.046,23.739c-0.105-0.003-0.211-0.004-0.318-0.004h-10.866L122.728,22.723z M130.779,59.942c0,1.166-0.447,2.255-1.258,3.066   c-0.819,0.819-1.908,1.271-3.065,1.271h-0.577c-0.046,0-0.091-0.006-0.137-0.006H74.259c-0.046,0-0.091,0.006-0.137,0.006h-0.577   c-2.384,0-4.324-1.945-4.324-4.337c0-1.148,0.452-2.232,1.271-3.053c0.484-0.484,1.053-0.836,1.739-1.063   c0.4-0.138,0.842-0.208,1.314-0.208h15.46h21.989h15.461c0.48,0,0.926,0.07,1.371,0.224   C129.592,56.427,130.779,58.074,130.779,59.942z M117.388,15.752l-9.06,32.867H91.671l-9.06-32.867H117.388z M63.181,24.883   l14.09-2.16l7.138,25.896H73.544c-0.103,0-0.205,0.001-0.307,0.004L63.181,24.883z M161.658,178.17   c-3.365,3.862-8.232,6.078-13.355,6.078H51.697c-5.123,0-9.99-2.216-13.355-6.078c-3.364-3.863-4.891-8.989-4.188-14.063   l9.28-66.967c0.626-4.52,2.937-8.574,6.504-11.418l13.281-10.586c3.089-2.463,6.955-3.825,10.902-3.856h18.471   c-5.051,7.734-6.504,16.336-6.919,20.748c-4.125,1.395-7.107,5.294-7.107,9.884c0,5.756,4.683,10.438,10.438,10.438   s10.438-4.683,10.438-10.438c0-4.451-2.805-8.249-6.736-9.748c0.5-4.532,2.247-13.62,8.307-20.398   c6.059,6.778,7.806,15.866,8.307,20.398c-3.931,1.498-6.736,5.297-6.736,9.748c0,5.756,4.683,10.438,10.438,10.438   s10.438-4.683,10.438-10.438c0-4.59-2.982-8.489-7.107-9.884c-0.416-4.413-1.869-13.014-6.919-20.748h16.444   c3.947,0.031,7.814,1.394,10.902,3.856l13.281,10.586c3.568,2.844,5.878,6.898,6.504,11.418l9.28,66.967   C166.549,169.181,165.022,174.307,161.658,178.17z M92.443,101.911c0,1.896-1.542,3.438-3.438,3.438s-3.438-1.543-3.438-3.438   s1.542-3.438,3.438-3.438S92.443,100.016,92.443,101.911z M109.584,101.911c0-1.896,1.542-3.438,3.438-3.438   s3.438,1.543,3.438,3.438s-1.542,3.438-3.438,3.438S109.584,103.807,109.584,101.911z" fill="#280101"/><path d="M98.08,141.821v-18.914c0-1.933-1.567-3.5-3.5-3.5s-3.5,1.567-3.5,3.5v15.414H75.345v-3.187   c0-3.568,2.153-6.644,5.227-7.995v5.225c0,1.933,1.567,3.5,3.5,3.5s3.5-1.567,3.5-3.5v-9.457c0-1.933-1.567-3.5-3.5-3.5   c-8.672,0-15.727,7.056-15.727,15.728v6.687c0,1.933,1.567,3.5,3.5,3.5H94.58C96.513,145.321,98.08,143.754,98.08,141.821z" opacity="0.5"/><path d="M128.155,149.187H105.42c-1.933,0-3.5,1.567-3.5,3.5v18.914c0,1.933,1.567,3.5,3.5,3.5s3.5-1.567,3.5-3.5   v-15.414h15.735v3.187c0,3.568-2.153,6.644-5.227,7.995v-5.225c0-1.933-1.567-3.5-3.5-3.5s-3.5,1.567-3.5,3.5v9.457   c0,1.933,1.567,3.5,3.5,3.5c8.672,0,15.727-7.056,15.727-15.728v-6.687C131.655,150.754,130.088,149.187,128.155,149.187z" opacity="0.5"/><path d="M94.888,148.829H75.975c-1.933,0-3.5,1.567-3.5,3.5s1.567,3.5,3.5,3.5h15.414v15.734h-3.187   c-3.568,0-6.643-2.152-7.994-5.227h5.224c1.933,0,3.5-1.567,3.5-3.5s-1.567-3.5-3.5-3.5h-9.457c-1.933,0-3.5,1.567-3.5,3.5   c0,8.672,7.055,15.727,15.727,15.727h6.687c1.933,0,3.5-1.567,3.5-3.5v-22.734C98.388,150.396,96.821,148.829,94.888,148.829z" opacity="0.5"/><path d="M105.396,145.333h18.914c1.933,0,3.5-1.567,3.5-3.5s-1.567-3.5-3.5-3.5h-15.414v-15.734h3.187   c3.568,0,6.643,2.152,7.994,5.228h-5.224c-1.933,0-3.5,1.567-3.5,3.5s1.567,3.5,3.5,3.5h9.457c1.933,0,3.5-1.567,3.5-3.5   c0-8.672-7.055-15.728-15.727-15.728h-6.687c-1.933,0-3.5,1.567-3.5,3.5v22.734C101.896,143.766,103.463,145.333,105.396,145.333z" opacity="0.5"/><path d="M155.732,123.443c-0.24-1.918-1.987-3.272-3.909-3.036c-1.918,0.241-3.278,1.991-3.037,3.909l5.225,41.585   c0.21,1.444-0.2,2.847-1.154,3.95c-0.955,1.104-2.284,1.712-3.743,1.712h-5.375c-1.933,0-3.5,1.567-3.5,3.5s1.567,3.5,3.5,3.5   h5.375c3.472,0,6.766-1.506,9.038-4.132s3.287-6.103,2.796-9.471L155.732,123.443z" opacity="0.5"/></g></svg>